<svg width="52" height="67" viewBox="0 0 52 67" fill="none" xmlns="http://www.w3.org/2000/svg">
<path d="M25.5046 31.7274V34.0322" stroke="white" stroke-width="5" stroke-miterlimit="10" stroke-linecap="round" stroke-linejoin="round"/>
<path d="M25.5041 49.1009V51.4057" stroke="white" stroke-width="5" stroke-miterlimit="10" stroke-linecap="round" stroke-linejoin="round"/>
<path d="M31.7277 17.5969L31.0362 16.214H25.5046H19.9731L19.5121 17.8273C18.1292 21.7455 15.3634 25.2028 11.6757 27.7381C-2.38372 37.1878 0.151585 56.5484 16.2853 62.7714C22.2779 65.0762 28.9619 65.0762 34.7239 62.7714C50.8577 56.5484 53.393 36.9574 39.5641 27.5076C35.8763 24.9723 33.1106 21.7455 31.7277 17.5969Z" stroke="white" stroke-width="5" stroke-miterlimit="10" stroke-linecap="round" stroke-linejoin="round"/>
<path d="M12.5985 3.53714L20.4349 16.2137" stroke="white" stroke-width="5" stroke-miterlimit="10" stroke-linecap="round" stroke-linejoin="round"/>
<path d="M15.3638 6.07248L17.8991 3.53717C19.282 2.15428 21.5868 2.15428 22.9697 3.53717C24.3526 4.92006 26.6574 4.92006 28.0403 3.53717C29.4232 2.15428 31.728 2.15428 33.1109 3.53717L35.6462 6.07248" stroke="white" stroke-width="5" stroke-miterlimit="10" stroke-linecap="round" stroke-linejoin="round"/>
<path d="M38.4122 16.2137H30.5758L38.4122 3.53714" stroke="white" stroke-width="5" stroke-miterlimit="10" stroke-linecap="round" stroke-linejoin="round"/>
<path d="M27.8097 34.6521H24.3524C22.5086 34.6521 20.8952 36.2655 20.8952 38.1093C20.8952 39.9532 22.5086 41.5666 24.3524 41.5666H26.6573C28.5011 41.5666 30.1145 43.1799 30.1145 45.0238C30.1145 46.8677 28.5011 48.481 26.6573 48.481H23.2" stroke="white" stroke-width="5" stroke-miterlimit="10" stroke-linecap="round" stroke-linejoin="round"/>
</svg>
