<svg width="428" height="44" viewBox="0 0 428 44" fill="none" xmlns="http://www.w3.org/2000/svg">
<mask id="path-1-inside-1_0_16" fill="white">
</mask>
<path d="M427 4.5V39.5H428V4.5H427ZM423.5 43H4.50001V44H423.5V43ZM1 39.5V4.5H0V39.5H1ZM4.5 1H14.9969V0H4.5V1ZM411.878 1H423.5V0H411.878V1ZM4.50001 43C2.56701 43 1 41.433 1 39.5H0C0 41.9853 2.01473 44 4.50001 44V43ZM427 39.5C427 41.433 425.433 43 423.5 43V44C425.985 44 428 41.9853 428 39.5H427ZM428 4.5C428 2.01472 425.985 0 423.5 0V1C425.433 1 427 2.567 427 4.5H428ZM1 4.5C1 2.567 2.567 1 4.5 1V0C2.01472 0 0 2.01472 0 4.5H1Z" fill="black" mask="url(#path-1-inside-1_0_16)"/>
</svg>
