<svg width="74" height="54" viewBox="0 0 74 54" fill="none" xmlns="http://www.w3.org/2000/svg">
<path d="M71.5241 26.6983L71.5276 26.7022C71.676 26.8662 71.6808 27.1325 71.5241 27.3066L49.4445 51.8395C49.3382 51.9515 49.2092 52 49.0936 52H34.3663C34.1907 52 34.0251 51.8965 33.9484 51.725L33.9467 51.7213C33.8782 51.569 33.9025 51.3775 34.0278 51.2376C34.028 51.2375 34.0281 51.2373 34.0282 51.2372L54.6399 28.338L55.8441 27.0001L54.64 25.6621L34.0268 2.75632L34.0268 2.75632L34.0237 2.75289C33.9132 2.6307 33.8753 2.44193 33.9494 2.26781C34.0265 2.10291 34.1911 2 34.3663 2H49.0936C49.2177 2 49.339 2.0496 49.4361 2.15604C49.4365 2.15652 49.4369 2.15699 49.4373 2.15747L71.5241 26.6983Z" stroke="white" stroke-width="4"/>
<path d="M39.6151 26.6983L39.6186 26.7022C39.767 26.8662 39.7718 27.1325 39.6151 27.3066L17.5355 51.8395C17.4292 51.9515 17.3002 52 17.1846 52H2.45731C2.28168 52 2.11614 51.8965 2.03939 51.725L2.03769 51.7213C1.96916 51.569 1.99349 51.3775 2.11883 51.2376C2.11896 51.2375 2.11909 51.2373 2.11922 51.2372L22.7309 28.338L23.9351 27.0001L22.7311 25.6621L2.11778 2.75632L2.11778 2.75632L2.11468 2.75289C2.00421 2.6307 1.96632 2.44193 2.04045 2.26781C2.11746 2.1029 2.28207 2 2.45731 2H17.1846C17.3087 2 17.43 2.0496 17.5271 2.15604C17.5275 2.15652 17.5279 2.15699 17.5284 2.15747L39.6151 26.6983Z" stroke="white" stroke-width="4"/>
</svg>
