<svg width="72" height="60" viewBox="0 0 72 60" fill="none" xmlns="http://www.w3.org/2000/svg">
<path d="M63.3056 0H8.08333C3.625 0 0 3.55556 0 7.91667V51.8056C0 56.25 3.70833 60 8.08333 60H63.3056C67.6111 60 71.1111 56.3194 71.1111 51.8056V7.91667C71.1111 3.47222 67.6806 0 63.3056 0ZM65.5556 51.8056C65.5556 53.2639 64.5417 54.4444 63.3056 54.4444H8.08333C6.76389 54.4444 5.55556 53.1806 5.55556 51.8056V7.91667C5.55556 6.61111 6.69444 5.55556 8.08333 5.55556H63.3056C64.625 5.55556 65.5556 6.52778 65.5556 7.91667V51.8056Z" fill="white"/>
<path d="M57.4865 42.3193L46.8476 35.0832C47.2921 33.8332 47.556 32.5138 47.6254 31.1388C47.7782 31.1527 47.931 31.1388 48.0976 31.1249L50.8337 30.6943C51.9726 30.5138 52.7504 29.4582 52.5699 28.3193L52.1671 25.736C51.9865 24.5971 50.931 23.8193 49.7921 23.9999L47.056 24.4305C46.8199 24.4721 46.5976 24.5416 46.3893 24.6527C45.806 23.3888 45.056 22.2221 44.1393 21.1943C44.3199 21.0693 44.4726 20.9027 44.6115 20.7221L46.2226 18.4721C46.8893 17.5416 46.681 16.236 45.7365 15.5693L43.6115 14.0555C42.681 13.3888 41.3754 13.5971 40.7088 14.5416L39.0976 16.7916C38.9449 16.9999 38.8476 17.2221 38.7782 17.4443C37.5143 16.9443 36.1671 16.6249 34.7504 16.5138C34.7782 16.3193 34.7643 16.1249 34.7365 15.9305L34.2643 13.1943C34.0699 12.0555 32.9865 11.3055 31.8615 11.4999L29.2921 11.9443C28.1532 12.1388 27.4032 13.2221 27.5976 14.3471L28.0699 17.0832C28.0976 17.2499 28.1532 17.4166 28.2226 17.5693C26.9865 18.0971 25.8476 18.7777 24.8338 19.611C24.7643 19.5277 24.681 19.4443 24.5838 19.3749L22.431 17.6388C21.5282 16.9166 20.2226 17.0693 19.5004 17.9721L17.8754 19.9999C17.1532 20.9027 17.306 22.2082 18.2088 22.9305L20.3754 24.6666C20.5143 24.7777 20.6671 24.861 20.8199 24.9305C20.3338 26.0693 19.9865 27.2777 19.8199 28.5416L17.0976 28.8749C15.9588 29.0138 15.1393 30.0555 15.2782 31.1943L15.5976 33.7777C15.7365 34.9166 16.7782 35.736 17.9171 35.5971L20.556 35.2777C21.0976 36.7221 21.8615 38.0693 22.8199 39.2499L21.2782 41.2499C20.5699 42.1666 20.7504 43.4721 21.6532 44.1666L23.7226 45.7638C24.6393 46.4721 25.9449 46.2916 26.6393 45.3888L28.2365 43.3193C29.6254 43.9027 31.1115 44.2777 32.681 44.3749L33.0421 46.9443C33.1949 48.0832 34.2504 48.8749 35.3893 48.7221L37.9726 48.361C39.1115 48.2082 39.9032 47.1527 39.7504 46.0138L39.3754 43.2638C39.3754 43.236 39.3615 43.2221 39.3615 43.1943C41.1254 42.4027 42.6949 41.2638 43.9865 39.8471L54.3615 46.9027C54.8337 47.2221 55.3893 47.3888 55.9171 47.3888C56.806 47.3888 57.681 46.9582 58.2226 46.1666C59.0838 44.9166 58.7504 43.1943 57.4865 42.3193ZM33.6671 38.861C29.0282 38.861 25.2365 35.0832 25.2365 30.4305C25.2365 25.7777 29.0143 21.9999 33.6671 21.9999C38.306 21.9999 42.0976 25.7777 42.0976 30.4305C42.0976 35.0832 38.3199 38.861 33.6671 38.861Z" fill="white"/>
</svg>
