<svg width="427" height="46" viewBox="0 0 427 46" fill="none" xmlns="http://www.w3.org/2000/svg">
<path fill-rule="evenodd" clip-rule="evenodd" d="M4.5 1C2.567 1 1 2.56701 1 4.5V40.9954C1 42.9284 2.56701 44.4954 4.50001 44.4954H422.5C424.433 44.4954 426 42.9284 426 40.9954V4.5C426 2.567 424.433 1 422.5 1H411.518V0H422.5C424.985 0 427 2.01472 427 4.5V40.9954C427 43.4807 424.985 45.4954 422.5 45.4954H4.50001C2.01473 45.4954 0 43.4807 0 40.9954V4.5C0 2.01472 2.01472 0 4.5 0H16.7844V1H4.5Z" fill="black" fill-opacity="0.12"/>
</svg>
